<?xml version="1.0" encoding="iso-8859-1"?>
<!-- Uploaded to: SVG Repo, www.svgrepo.com, Generator: SVG Repo Mixer Tools -->
<svg fill="#000000" height="800px" width="800px" version="1.1" id="Capa_1" xmlns="http://www.w3.org/2000/svg" xmlns:xlink="http://www.w3.org/1999/xlink" 
	 viewBox="0 0 489.6 489.6" xml:space="preserve">
<g>
	<path d="M425,177.1C425,79.2,343.8,0,244.8,0C144.8,0,64.6,79.2,64.6,177.1c0,91,70.1,165.7,159.4,175.9v115.8
		c0,11.5,9.4,20.8,20.8,20.8c11.4,0,20.8-9.4,20.8-19.8V353C354.9,342.8,425,268,425,177.1z M265.6,312v-27.8l83.3-85.3
		c8.3-8.3,8.3-20.8,0-29.2c-8.3-8.3-20.8-8.3-29.2,0l-54.2,55.4V120.8c0-11.5-9.4-20.8-20.8-20.8s-20.8,9.4-20.8,20.8v43.8
		l-39.6-40.7c-8.3-7.3-20.8-8.3-29.2,0c-7.3,8.3-8.3,20.8,0,29.2l68.8,70.7V312c-66.3-10-117.7-66.9-117.7-134.9
		c0-75,61.5-136.5,138.5-136.5s138.5,61.5,138.5,136.5C383.3,245.1,331.9,302,265.6,312z"/>
</g>
</svg>